<svg width="25" height="25" viewBox="0 0 25 25" fill="none" xmlns="http://www.w3.org/2000/svg">
<path d="M6.24877 3.76574L6.35151 4.13H6.73H19.22C20.093 4.13 20.8899 4.47363 21.474 5.0907C22.0505 5.72013 22.3403 6.53302 22.2716 7.40052L22.2713 7.40409L21.7313 14.9041L21.7313 14.9041L21.7309 14.91C21.6371 16.4712 20.2603 17.75 18.69 17.75H8.03999C7.19094 17.75 6.37427 17.3894 5.79836 16.7619C5.22195 16.1339 4.92981 15.291 4.99832 14.4409C4.99834 14.4407 4.99836 14.4405 4.99838 14.4403L5.82803 4.48452C5.87152 4.02383 5.70598 3.58787 5.40924 3.26287C5.09888 2.92295 4.67192 2.75 4.23 2.75H2.5C2.36614 2.75 2.25 2.63386 2.25 2.5C2.25 2.36614 2.36614 2.25 2.5 2.25H4.24001C4.82648 2.25 5.38333 2.49862 5.7806 2.92698C6.00164 3.17329 6.16125 3.45542 6.24877 3.76574ZM6.28 5.09928L5.50185 14.477C5.50182 14.4773 5.5018 14.4776 5.50177 14.4779C5.43988 15.1987 5.67813 15.885 6.15964 16.4159C6.64804 16.9544 7.32441 17.24 8.03999 17.24H18.69C19.9948 17.24 21.1488 16.1553 21.2485 14.8584L21.2487 14.8559L21.7887 7.35591L21.7888 7.35383C21.8375 6.63602 21.6067 5.93648 21.1144 5.4176C20.6263 4.89317 19.9525 4.60999 19.23 4.60999H6.78H6.28V5.09928Z" fill="#858585" stroke="#858585"/>
<path d="M16.75 22.75C15.9261 22.75 15.25 22.0739 15.25 21.25C15.25 20.4261 15.9261 19.75 16.75 19.75C17.5739 19.75 18.25 20.4261 18.25 21.25C18.25 22.0739 17.5739 22.75 16.75 22.75ZM16.75 20.25C16.1939 20.25 15.75 20.6939 15.75 21.25C15.75 21.8061 16.1939 22.25 16.75 22.25C17.3061 22.25 17.75 21.8061 17.75 21.25C17.75 20.6939 17.3061 20.25 16.75 20.25Z" fill="#858585" stroke="#858585"/>
<path d="M8.75 23.25C7.65 23.25 6.75 22.35 6.75 21.25C6.75 20.15 7.65 19.25 8.75 19.25C9.85 19.25 10.75 20.15 10.75 21.25C10.75 22.35 9.85 23.25 8.75 23.25ZM8.75 20.75C8.47 20.75 8.25 20.97 8.25 21.25C8.25 21.53 8.47 21.75 8.75 21.75C9.03 21.75 9.25 21.53 9.25 21.25C9.25 20.97 9.03 20.75 8.75 20.75Z" fill="#858585"/>
<path d="M21.5 9.25H9.5C9.09 9.25 8.75 8.91 8.75 8.5C8.75 8.09 9.09 7.75 9.5 7.75H21.5C21.91 7.75 22.25 8.09 22.25 8.5C22.25 8.91 21.91 9.25 21.5 9.25Z" fill="#858585"/>
</svg>
