<svg width="25" height="25" viewBox="0 0 25 25" fill="none" xmlns="http://www.w3.org/2000/svg">
<path d="M12.342 11.1197L12.4004 11.1217L12.4414 11.1135C12.4518 11.113 12.468 11.1125 12.4896 11.1125C12.534 11.1125 12.5887 11.1145 12.6412 11.1185L12.6718 11.1209L12.7025 11.1195C14.931 11.0171 16.6782 9.1862 16.6896 6.94253V6.94C16.6896 4.63386 14.8057 2.75 12.4996 2.75C10.1934 2.75 8.30957 4.63386 8.30957 6.94C8.30957 9.20956 10.0831 11.0402 12.342 11.1197ZM12.6596 11.62H12.6594H12.6592H12.659H12.6589H12.6587H12.6585H12.6583H12.6582H12.658H12.6578H12.6577H12.6575H12.6573H12.6571H12.657H12.6568H12.6566H12.6564H12.6563H12.6561H12.6559H12.6558H12.6556H12.6554H12.6552H12.6551H12.6549H12.6547H12.6546H12.6544H12.6542H12.6541H12.6539H12.6537H12.6536H12.6534H12.6532H12.653H12.6529H12.6527H12.6525H12.6524H12.6522H12.652H12.6519H12.6517H12.6515H12.6514H12.6512H12.651H12.6509H12.6507H12.6506H12.6504H12.6502H12.6501H12.6499H12.6497H12.6496H12.6494H12.6492H12.6491H12.6489H12.6487H12.6486H12.6484H12.6483H12.6481H12.6479H12.6478H12.6476H12.6475H12.6473H12.6471H12.647H12.6468H12.6466H12.6465H12.6463H12.6462H12.646H12.6458H12.6457H12.6455H12.6454H12.6452H12.645H12.6449H12.6447H12.6446H12.6444H12.6443H12.6441H12.6439H12.6438H12.6436H12.6435H12.6433H12.6431H12.643H12.6428H12.6427H12.6425H12.6424H12.6422H12.642H12.6419H12.6417H12.6416H12.6414H12.6413H12.6411H12.641H12.6408H12.6406H12.6405H12.6403H12.6402H12.64H12.6399H12.6397H12.6396H12.6394H12.6392H12.6391H12.6389H12.6388H12.6386H12.6385H12.6383H12.6382H12.638H12.6379H12.6377H12.6376H12.6374H12.6373H12.6371H12.6369H12.6368H12.6366H12.6365H12.6363H12.6362H12.636H12.6359H12.6357H12.6356H12.6354H12.6353H12.6351H12.635H12.6348H12.6347H12.6345H12.6344H12.6342H12.6341H12.6339H12.6338H12.6336H12.6335H12.6333H12.6332H12.633H12.6329H12.6327H12.6326H12.6324H12.6323H12.6321H12.632H12.6318H12.6317H12.6315H12.6314H12.6312H12.6311H12.6309H12.6308H12.6306H12.6305H12.6303H12.6302H12.63H12.6299H12.6297H12.6296H12.6294H12.6293H12.6291H12.629H12.6288H12.6287H12.6285H12.6284H12.6282H12.6281H12.6279H12.6278H12.6277H12.6275H12.6274H12.6272H12.6271H12.6269H12.6268H12.6266H12.6265H12.6263H12.6262H12.626H12.6259H12.6257H12.6256H12.6254H12.6253H12.6251H12.625H12.6249H12.6247H12.6246H12.6244H12.6243H12.6241H12.624H12.6238H12.6237H12.6235H12.6234H12.6232H12.6231H12.6229H12.6228H12.6226H12.6225H12.6224H12.6222H12.6221H12.6219H12.6218H12.6216H12.6215H12.6213H12.6212H12.621H12.6209H12.6207H12.6206H12.6204H12.6203H12.6202H12.62H12.6199H12.6197H12.6196H12.6194H12.6193H12.6191H12.619H12.6188H12.6187H12.6185H12.6184H12.6183H12.6181H12.618H12.6178H12.6177H12.6175H12.6175C12.5362 11.6098 12.452 11.6106 12.3754 11.6189C9.76221 11.5178 7.80957 9.46409 7.80957 6.94C7.80957 4.35614 9.91571 2.25 12.4996 2.25C15.0831 2.25 17.189 4.35562 17.1896 6.93903C17.1801 9.47998 15.1952 11.5348 12.6813 11.62H12.6813H12.6812H12.6812H12.6811H12.6811H12.681H12.681H12.6809H12.6808H12.6808H12.6807H12.6807H12.6806H12.6805H12.6805H12.6804H12.6804H12.6803H12.6803H12.6802H12.6801H12.6801H12.68H12.68H12.6799H12.6798H12.6798H12.6797H12.6797H12.6796H12.6796H12.6795H12.6794H12.6794H12.6793H12.6793H12.6792H12.6791H12.6791H12.679H12.679H12.6789H12.6788H12.6788H12.6787H12.6787H12.6786H12.6786H12.6785H12.6784H12.6784H12.6783H12.6783H12.6782H12.6781H12.6781H12.678H12.678H12.6779H12.6779H12.6778H12.6777H12.6777H12.6776H12.6776H12.6775H12.6774H12.6774H12.6773H12.6773H12.6772H12.6771H12.6771H12.677H12.677H12.6769H12.6769H12.6768H12.6767H12.6767H12.6766H12.6766H12.6765H12.6764H12.6764H12.6763H12.6763H12.6762H12.6762H12.6761H12.676H12.676H12.6759H12.6759H12.6758H12.6757H12.6757H12.6756H12.6756H12.6755H12.6754H12.6754H12.6753H12.6753H12.6752H12.6752H12.6751H12.675H12.675H12.6749H12.6749H12.6748H12.6747H12.6747H12.6746H12.6746H12.6745H12.6745H12.6744H12.6743H12.6743H12.6742H12.6742H12.6741H12.674H12.674H12.6739H12.6739H12.6738H12.6737H12.6737H12.6736H12.6736H12.6735H12.6735H12.6734H12.6733H12.6733H12.6732H12.6732H12.6731H12.673H12.673H12.6729H12.6729H12.6728H12.6728H12.6727H12.6726H12.6726H12.6725H12.6725H12.6724H12.6723H12.6723H12.6722H12.6722H12.6721H12.6721H12.672H12.6719H12.6719H12.6718H12.6718H12.6717H12.6716H12.6716H12.6715H12.6715H12.6714H12.6713H12.6713H12.6712H12.6712H12.6711H12.6711H12.671H12.6709H12.6709H12.6708H12.6708H12.6707H12.6706H12.6706H12.6705H12.6705H12.6704H12.6704H12.6703H12.6702H12.6702H12.6701H12.6701H12.67H12.6699H12.6699H12.6698H12.6698H12.6697H12.6696H12.6696H12.6695H12.6695H12.6694H12.6694H12.6693H12.6692H12.6692H12.6691H12.6691H12.669H12.6689H12.6689H12.6688H12.6688H12.6687H12.6687H12.6686H12.6685H12.6685H12.6684H12.6684H12.6683H12.6682H12.6682H12.6681H12.6681H12.668H12.6679H12.6679H12.6678H12.6678H12.6677H12.6677H12.6676H12.6675H12.6675H12.6674H12.6674H12.6673H12.6672H12.6672H12.6671H12.6671H12.667H12.667H12.6669H12.6668H12.6668H12.6667H12.6667H12.6666H12.6665H12.6665H12.6664H12.6664H12.6663H12.6662H12.6662H12.6661H12.6661H12.666H12.666H12.6659H12.6658H12.6658H12.6657H12.6657H12.6656H12.6655H12.6655H12.6654H12.6654H12.6653H12.6653H12.6652H12.6651H12.6651H12.665H12.665H12.6649H12.6648H12.6648H12.6647H12.6647H12.6646H12.6646H12.6645H12.6644H12.6644H12.6643H12.6643H12.6642H12.6641H12.6641H12.664H12.664H12.6639H12.6638H12.6638H12.6637H12.6637H12.6636H12.6636H12.6635H12.6634H12.6634H12.6633H12.6633H12.6632H12.6631H12.6631H12.663H12.663H12.6629H12.6629H12.6628H12.6627H12.6627H12.6626H12.6626H12.6625H12.6624H12.6624H12.6623H12.6623H12.6622H12.6621H12.6621H12.662H12.662H12.6619H12.6619H12.6618H12.6617H12.6617H12.6616H12.6616H12.6615H12.6614H12.6614H12.6613H12.6613H12.6612H12.6612H12.6611H12.661H12.661H12.6609H12.6609H12.6608H12.6607H12.6607H12.6606H12.6606H12.6605H12.6604H12.6604H12.6603H12.6603H12.6602H12.6602H12.6601H12.66H12.66H12.6599H12.6599H12.6598H12.6597H12.6597H12.6596H12.6596Z" fill="#858585" stroke="#858585"/>
<path d="M12.6696 23.05C10.7096 23.05 8.73961 22.55 7.24961 21.55C5.85961 20.63 5.09961 19.37 5.09961 18C5.09961 16.63 5.85961 15.36 7.24961 14.43C10.2496 12.44 15.1096 12.44 18.0896 14.43C19.4696 15.35 20.2396 16.61 20.2396 17.98C20.2396 19.35 19.4796 20.62 18.0896 21.55C16.5896 22.55 14.6296 23.05 12.6696 23.05ZM8.07961 15.69C7.11961 16.33 6.59961 17.15 6.59961 18.01C6.59961 18.86 7.12961 19.68 8.07961 20.31C10.5696 21.98 14.7696 21.98 17.2596 20.31C18.2196 19.67 18.7396 18.85 18.7396 17.99C18.7396 17.14 18.2096 16.32 17.2596 15.69C14.7696 14.03 10.5696 14.03 8.07961 15.69Z" fill="#858585"/>
</svg>
